<svg fill="none" height="24" viewBox="0 0 24 24" width="24" xmlns="http://www.w3.org/2000/svg"><g fill="#000"><path d="m21.575 12.225c0-.6583-.0583-1.2833-.1583-1.8917h-9.4167v3.7584h5.3917c-.2417 1.2333-.95 2.275-2 2.9833v2.5h3.2166c1.8834-1.7417 2.9667-4.3083 2.9667-7.35z"/><path d="m12 5.95833c1.475 0 2.7917.50834 3.8333 1.50001l2.85-2.85001c-1.725-1.61666-3.9833-2.60833-6.6833-2.60833-3.90833 0-7.28333 2.25-8.925 5.51667l3.31667 2.57503c.79166-2.37503 3-4.13337 5.60833-4.13337z"/><path clip-rule="evenodd" d="m12 22c-3.90833 0-7.28333-2.25-8.925-5.5167l3.31667-2.575c.79166 2.375 3 4.1334 5.60833 4.1334 1.35 0 2.4917-.3667 3.3917-.9667l3.2166 2.5c-1.65 1.525-3.9083 2.425-6.6083 2.425zm-5.60833-11.9083v-2.57503h-3.31667z" fill-rule="evenodd"/><path d="m3.075 13.9083h3.31667c-.20834-.6-.31667-1.2416-.31667-1.9083s.11667-1.3083.31667-1.9083l-3.31667-2.57503c-.68333 1.35-1.075 2.86663-1.075 4.48333s.39167 3.1333 1.075 4.4833z"/><path d="m6.39167 13.9083h-3.31667v2.575z"/></g></svg>